# xmcd CD database file
# Copyright (C) 1993-1998 Ti Kan
# 
# Track frame offsets:
#     150
#     19887
#     34992
#     52187
#     68447
#     88995
#     100207
#     113702
#     128032
#     146495
#     164800
#     180987
# 
# Disc length: 2684 seconds
# 
# Revision: 1
# Processed by: cddbd v1.4b41PL1 Copyright (c) Steve Scherf et al.
# Submitted via: DiscPlay 4.0.4
# 
DISCID=a70a7a0c
DTITLE=Doc Lawrence and The Blues Fix - One Track Mind
DYEAR=1900
DGENRE=
TTITLE0=The Doctor Is In
TTITLE1=Scotch and Water
TTITLE2=I'm Too Lazy To Work
TTITLE3=One Track Mind
TTITLE4=Time Wounds All Heels
TTITLE5=Lead Me Not Into Temptation
TTITLE6=You Started A Fire
TTITLE7=Hip Shakin' Mama
TTITLE8=Here's Your Hat
TTITLE9=Junk Yard Dog
TTITLE10=You Lyin'
TTITLE11=Run For Your Wife
EXTD=
EXTT0=
EXTT1=
EXTT2=
EXTT3=
EXTT4=
EXTT5=
EXTT6=
EXTT7=
EXTT8=
EXTT9=
EXTT10=
EXTT11=
PLAYORDER=
